<svg width="48" height="48" viewBox="0 0 48 48" fill="none" xmlns="http://www.w3.org/2000/svg">
<path d="M41.3737 23.9639L20.4593 28.2098" stroke="white" stroke-width="2.5326" stroke-linecap="round"/>
<path d="M29.8941 26.1675L32.1367 17.0301" stroke="white" stroke-width="2.5326" stroke-linecap="round"/>
<path d="M25.6102 7.50049L20.459 28.2105" stroke="white" stroke-width="2.5326" stroke-linecap="round"/>
<path d="M22.8106 18.769L32.1367 17.03" stroke="white" stroke-width="2.5326" stroke-linecap="round"/>
<path d="M21.3351 29.1251C21.5884 28.904 21.7382 28.5947 21.7453 28.2588C21.7528 27.9232 21.617 27.5885 21.3741 27.3347C21.1311 27.081 20.8026 26.9308 20.467 26.9237C20.1311 26.9162 19.8156 27.0523 19.5837 27.2958C19.3832 27.506 19.1827 27.7162 18.9822 27.9265C15.373 31.7107 11.7639 35.4949 8.15474 39.2791C7.95423 39.4893 7.75372 39.6996 7.55322 39.9098C7.47012 39.997 7.42471 40.1165 7.42477 40.2396C7.42495 40.3628 7.47059 40.4796 7.55385 40.5666C7.63711 40.6536 7.75181 40.7042 7.87493 40.7098C7.99792 40.7152 8.11925 40.675 8.21001 40.5958C8.21001 40.5958 8.21001 40.5958 8.21001 40.5958C8.42876 40.4046 8.64751 40.2134 8.86627 40.0223C12.8038 36.5811 16.7413 33.1399 20.6789 29.6987C20.8976 29.5075 21.1164 29.3163 21.3351 29.1251Z" fill="white"/>
</svg>
